# xmcd
#
# Track frame offsets:
#	150
#	3416
#	26578
#	56139
#	77289
#	117164
#	152526
#	178972
#
# Disc length: 2907 seconds
#
# Revision: 0
# Processed by: cddbd v1.5.2PL0 Copyright (c) Steve Scherf et al.
# Submitted via: EasyCDDAExtractor 10.0.2.1
#
DISCID=570b5908
DTITLE=Ozzy Osbourne - Cricket Pavillion Phoenix AZ 24-07-07 Disc 1
DYEAR=2007
DGENRE=Hard Rock
TTITLE0=Intro
TTITLE1=Bark At The Moon
TTITLE2=Mr Crowley
TTITLE3=Not Going Away
TTITLE4=War Pigs
TTITLE5=Road To Nowhere
TTITLE6=Suicide Solution
TTITLE7=Zakk Wylde Solo
EXTD=
EXTT0=
EXTT1=
EXTT2=
EXTT3=
EXTT4=
EXTT5=
EXTT6=
EXTT7=
PLAYORDER=
